<svg xmlns="http://www.w3.org/2000/svg" xmlns:xlink="http://www.w3.org/1999/xlink" width="281" zoomAndPan="magnify" viewBox="0 0 210.75 210.749996" height="281" preserveAspectRatio="xMidYMid meet" version="1.2"><defs><clipPath id="10a5d980b5"><path d="M 0.265625 3.421875 L 61.277344 3.421875 L 61.277344 85.769531 L 0.265625 85.769531 Z M 0.265625 3.421875 "/></clipPath></defs><g id="85c198779f"><path style=" stroke:none;fill-rule:nonzero;fill:#655f68;fill-opacity:1;" d="M 57.183594 56.003906 L 50.691406 56.003906 C 50.691406 56.003906 49.367188 49.40625 47.382812 46.765625 C 45.402344 44.125 38.789062 41.484375 38.789062 41.484375 C 40.769531 38.84375 44.078125 32.246094 44.078125 27.625 C 44.078125 25.835938 43.183594 23.941406 42.089844 22.304688 L 42.09375 22.304688 C 42.09375 22.304688 42.753906 19.042969 41.433594 15.746094 C 40.117188 12.445312 32.839844 3.863281 28.207031 3.863281 C 23.578125 3.863281 15.644531 11.125 13.660156 16.40625 C 12.195312 20.3125 13.660156 23.003906 13.660156 23.003906 L 13.6875 23.019531 C 12.605469 25.382812 11.675781 28.054688 11.675781 30.265625 C 11.675781 32.90625 15.644531 39.503906 16.964844 41.484375 C 16.964844 41.484375 11.675781 42.804688 8.375 47.425781 C 5.0625 52.042969 0.4375 75.804688 1.097656 79.105469 C 1.761719 82.40625 5.0625 85.046875 5.0625 85.046875 L 46.054688 85.046875 L 46.054688 82.746094 C 46.414062 82.859375 46.800781 82.882812 47.171875 82.789062 L 49.148438 82.257812 C 49.890625 82.464844 50.703125 82.398438 51.421875 82.039062 L 57.304688 79.105469 L 57.304688 79.097656 C 59.140625 79.039062 60.609375 77.535156 60.609375 75.683594 L 60.609375 59.421875 C 60.609375 57.535156 59.074219 56.003906 57.183594 56.003906 Z M 57.183594 56.003906 "/><path style=" stroke:none;fill-rule:nonzero;fill:#888c8d;fill-opacity:1;" d="M 60.609375 59.421875 L 60.609375 75.683594 C 60.609375 77.535156 59.140625 79.039062 57.304688 79.097656 C 57.261719 79.105469 57.222656 79.105469 57.183594 79.105469 L 50.925781 79.105469 C 49.988281 79.105469 49.136719 78.527344 48.785156 77.660156 L 47.25 73.824219 C 46.988281 73.164062 46.34375 72.75 45.65625 72.75 C 45.546875 72.75 45.433594 72.761719 45.320312 72.78125 C 44.316406 72.984375 43.714844 74.015625 44.023438 74.984375 L 43.8125 74.34375 C 43.589844 73.679688 42.890625 73.296875 42.207031 73.46875 L 42.082031 73.5 C 41.359375 73.679688 40.914062 74.410156 41.09375 75.132812 C 40.914062 74.410156 40.183594 73.96875 39.464844 74.148438 L 39.4375 74.160156 C 38.714844 74.339844 38.273438 75.070312 38.453125 75.792969 C 38.273438 75.070312 37.539062 74.632812 36.816406 74.808594 C 36.203125 74.957031 35.800781 75.515625 35.800781 76.113281 C 35.800781 76.234375 35.8125 76.351562 35.84375 76.46875 L 36.558594 79.105469 L 31.632812 79.105469 C 29.742188 79.105469 28.207031 77.574219 28.207031 75.683594 L 28.207031 59.421875 C 28.207031 57.535156 29.742188 56.003906 31.632812 56.003906 L 57.183594 56.003906 C 59.074219 56.003906 60.609375 57.535156 60.609375 59.421875 Z M 60.609375 59.421875 "/><path style=" stroke:none;fill-rule:nonzero;fill:#fec4b9;fill-opacity:1;" d="M 57.304688 79.097656 L 57.304688 79.105469 L 51.421875 82.039062 C 50.703125 82.398438 49.890625 82.464844 49.148438 82.257812 C 48.628906 82.117188 48.144531 81.84375 47.738281 81.441406 L 46.296875 80 C 45.710938 79.414062 45.261719 78.6875 44.996094 77.898438 L 44.738281 77.125 L 44.023438 74.984375 C 43.714844 74.015625 44.316406 72.984375 45.320312 72.78125 C 45.433594 72.761719 45.546875 72.75 45.65625 72.75 C 46.34375 72.75 46.988281 73.164062 47.25 73.824219 L 48.785156 77.660156 C 49.136719 78.527344 49.988281 79.105469 50.925781 79.105469 L 57.183594 79.105469 C 57.222656 79.105469 57.261719 79.105469 57.304688 79.097656 Z M 57.304688 79.097656 "/><path style=" stroke:none;fill-rule:nonzero;fill:#f7b6ad;fill-opacity:1;" d="M 49.148438 82.257812 L 47.171875 82.789062 C 46.800781 82.882812 46.414062 82.859375 46.054688 82.746094 C 45.824219 82.667969 45.601562 82.546875 45.40625 82.398438 C 45.347656 82.347656 45.300781 82.304688 45.25 82.253906 L 42.867188 79.875 C 42.355469 79.367188 42 78.742188 41.828125 78.046875 L 41.09375 75.132812 C 40.914062 74.410156 41.359375 73.679688 42.082031 73.5 L 42.207031 73.46875 C 42.890625 73.296875 43.589844 73.679688 43.8125 74.34375 L 44.023438 74.984375 L 44.738281 77.125 L 44.996094 77.898438 C 45.261719 78.6875 45.710938 79.414062 46.296875 80 L 47.738281 81.441406 C 48.144531 81.84375 48.628906 82.117188 49.148438 82.257812 Z M 49.148438 82.257812 "/><path style=" stroke:none;fill-rule:nonzero;fill:#fec4b9;fill-opacity:1;" d="M 45.40625 82.398438 L 45.402344 82.40625 L 43.953125 82.765625 C 43.210938 82.953125 42.425781 82.734375 41.882812 82.195312 L 40.222656 80.535156 C 39.71875 80.035156 39.359375 79.394531 39.183594 78.699219 L 38.453125 75.792969 C 38.273438 75.070312 38.714844 74.339844 39.4375 74.160156 L 39.464844 74.148438 C 40.183594 73.96875 40.914062 74.410156 41.09375 75.132812 L 41.828125 78.046875 C 42 78.742188 42.355469 79.367188 42.867188 79.875 L 45.25 82.253906 C 45.300781 82.304688 45.347656 82.347656 45.40625 82.398438 Z M 45.40625 82.398438 "/><path style=" stroke:none;fill-rule:nonzero;fill:#f7b6ad;fill-opacity:1;" d="M 41.433594 81.746094 L 39.164062 82.121094 C 38.199219 82.277344 37.265625 81.683594 37.011719 80.746094 L 36.566406 79.105469 L 36.558594 79.105469 L 35.84375 76.46875 C 35.8125 76.351562 35.800781 76.234375 35.800781 76.113281 C 35.800781 75.515625 36.203125 74.957031 36.816406 74.808594 C 37.539062 74.632812 38.273438 75.070312 38.453125 75.792969 L 39.183594 78.699219 C 39.359375 79.394531 39.71875 80.035156 40.222656 80.535156 Z M 41.433594 81.746094 "/><path style=" stroke:none;fill-rule:nonzero;fill:#504256;fill-opacity:1;" d="M 28.207031 19.042969 C 32.175781 19.042969 40.109375 21.023438 40.109375 29.605469 C 40.109375 34.925781 28.207031 42.804688 28.207031 42.804688 C 28.207031 42.804688 16.304688 34.925781 16.304688 29.605469 C 16.304688 21.023438 24.238281 19.042969 28.207031 19.042969 Z M 28.207031 19.042969 "/><path style=" stroke:none;fill-rule:nonzero;fill:#71cc75;fill-opacity:1;" d="M 28.140625 28.316406 L 26.386719 28.757812 C 25.214844 29.058594 24.285156 29.980469 23.992188 31.152344 L 23.546875 32.90625 L 23.101562 31.152344 C 22.808594 29.980469 21.878906 29.058594 20.703125 28.757812 L 18.949219 28.316406 L 20.703125 27.875 C 21.878906 27.578125 22.808594 26.65625 23.101562 25.480469 L 23.546875 23.730469 L 23.992188 25.480469 C 24.285156 26.65625 25.214844 27.578125 26.386719 27.875 Z M 28.140625 28.316406 "/><path style=" stroke:none;fill-rule:nonzero;fill:#47394f;fill-opacity:1;" d="M 28.207031 19.042969 C 28.207031 19.042969 38.996094 24.046875 33.96875 33.21875 C 29.898438 40.644531 19.613281 35.628906 19.613281 35.628906 C 23.132812 39.445312 28.207031 42.804688 28.207031 42.804688 C 28.207031 42.804688 40.109375 34.925781 40.109375 29.605469 C 40.109375 21.023438 32.175781 19.042969 28.207031 19.042969 Z M 28.207031 19.042969 "/><path style=" stroke:none;fill-rule:nonzero;fill:#5d5560;fill-opacity:1;" d="M 42.089844 22.304688 C 40.359375 19.707031 38.125 17.726562 38.125 17.726562 C 38.125 17.726562 44.738281 26.125 39.117188 37.152344 C 35.128906 44.984375 30.191406 49.40625 30.191406 49.40625 C 32.175781 48.746094 36.800781 44.132812 38.789062 41.492188 L 38.789062 41.484375 C 40.769531 38.84375 44.078125 32.246094 44.078125 27.625 C 44.078125 25.835938 43.183594 23.941406 42.089844 22.304688 Z M 42.089844 22.304688 "/><path style=" stroke:none;fill-rule:nonzero;fill:#5d5560;fill-opacity:1;" d="M 44.078125 56.003906 L 50.691406 56.003906 C 50.691406 56.003906 49.367188 49.40625 47.382812 46.765625 C 45.402344 44.125 38.789062 41.484375 38.789062 41.484375 C 38.789062 41.484375 52.371094 51.851562 44.078125 56.003906 Z M 44.078125 56.003906 "/><path style=" stroke:none;fill-rule:nonzero;fill:#7a7e7f;fill-opacity:1;" d="M 57.183594 56.003906 L 57.183594 68.398438 C 57.183594 68.398438 57.152344 76.351562 47.25 73.824219 L 48.785156 77.660156 C 49.136719 78.527344 49.988281 79.105469 50.925781 79.105469 L 57.183594 79.105469 C 57.222656 79.105469 57.261719 79.105469 57.304688 79.097656 C 59.140625 79.039062 60.609375 77.535156 60.609375 75.683594 L 60.609375 59.421875 C 60.609375 57.535156 59.074219 56.003906 57.183594 56.003906 Z M 57.183594 56.003906 "/><path style=" stroke:none;fill-rule:nonzero;fill:#3a322b;fill-opacity:1;" d="M 18.65625 77.191406 C 18.328125 77.355469 18.195312 77.753906 18.355469 78.078125 C 18.363281 78.085938 18.59375 78.558594 18.765625 79.195312 C 17.410156 78.449219 15.175781 77.261719 13.707031 76.683594 C 13.859375 75.109375 14.324219 70.34375 14.324219 69.203125 C 14.324219 68.386719 13.949219 67.648438 13.589844 66.925781 C 13.289062 66.320312 13 65.746094 13 65.242188 C 13 64.871094 13.140625 64.074219 13.296875 63.226562 C 13.664062 61.171875 14.125 58.609375 13.628906 57.117188 C 12.921875 55.011719 11.542969 53.617188 11.484375 53.558594 C 11.222656 53.296875 10.808594 53.300781 10.546875 53.558594 C 10.292969 53.816406 10.289062 54.230469 10.546875 54.492188 C 10.558594 54.503906 11.769531 55.734375 12.371094 57.535156 C 12.765625 58.710938 12.316406 61.183594 11.992188 62.992188 C 11.816406 63.976562 11.675781 64.753906 11.675781 65.242188 C 11.675781 66.058594 12.046875 66.800781 12.40625 67.519531 C 12.710938 68.125 13 68.699219 13 69.203125 C 13 70.21875 12.585938 74.582031 12.414062 76.328125 C 11.253906 76.179688 10.21875 76.476562 10.164062 76.492188 C 9.816406 76.597656 9.617188 76.964844 9.722656 77.3125 C 9.828125 77.664062 10.199219 77.863281 10.546875 77.757812 C 10.558594 77.753906 11.765625 77.410156 12.789062 77.75 C 14.386719 78.28125 17.839844 80.1875 18.9375 80.804688 C 18.839844 82.210938 18.308594 84.886719 18.300781 84.914062 C 18.230469 85.273438 18.460938 85.621094 18.820312 85.691406 C 18.863281 85.699219 18.90625 85.707031 18.949219 85.707031 C 19.261719 85.707031 19.535156 85.488281 19.597656 85.171875 C 19.625 85.035156 20.273438 81.792969 20.273438 80.425781 C 20.273438 78.96875 19.570312 77.550781 19.542969 77.492188 C 19.378906 77.164062 18.980469 77.03125 18.65625 77.191406 Z M 18.65625 77.191406 "/><path style=" stroke:none;fill-rule:nonzero;fill:#3a322b;fill-opacity:1;" d="M 22.238281 78.292969 C 22.15625 77.9375 21.796875 77.714844 21.441406 77.804688 C 21.089844 77.886719 20.867188 78.242188 20.949219 78.597656 L 21.390625 80.441406 C 21.601562 81.308594 21.648438 82.300781 21.539062 83.242188 L 21.332031 84.964844 C 21.289062 85.324219 21.546875 85.65625 21.914062 85.699219 C 21.9375 85.699219 21.960938 85.703125 21.988281 85.703125 C 22.320312 85.703125 22.605469 85.457031 22.644531 85.125 L 22.851562 83.398438 C 22.980469 82.304688 22.921875 81.148438 22.679688 80.136719 Z M 22.238281 78.292969 "/><g clip-rule="nonzero" clip-path="url(#10a5d980b5)"><path style=" stroke:none;fill-rule:nonzero;fill:#3a322b;fill-opacity:1;" d="M 57.179688 55.34375 L 51.226562 55.34375 C 50.863281 53.707031 49.65625 48.683594 47.914062 46.367188 C 46.238281 44.136719 41.636719 41.988281 39.800781 41.195312 C 41.746094 38.289062 44.734375 32.207031 44.738281 27.625 C 44.738281 25.765625 43.871094 23.84375 42.785156 22.164062 C 42.921875 21.285156 43.21875 18.429688 42.046875 15.5 C 40.664062 12.035156 33.175781 3.203125 28.207031 3.203125 C 23.238281 3.203125 15.054688 10.8125 13.042969 16.171875 C 11.742188 19.636719 12.59375 22.207031 12.945312 23.035156 C 11.894531 25.390625 11.015625 28.03125 11.015625 30.265625 C 11.015625 33.019531 14.632812 39.023438 15.945312 41.113281 C 14.261719 41.699219 10.472656 43.351562 7.835938 47.039062 C 4.492188 51.707031 -0.269531 75.644531 0.449219 79.234375 C 1.148438 82.730469 4.507812 85.445312 4.652344 85.558594 C 4.773438 85.65625 4.917969 85.703125 5.0625 85.703125 C 5.257812 85.703125 5.449219 85.621094 5.582031 85.457031 C 5.808594 85.171875 5.761719 84.753906 5.480469 84.527344 C 5.445312 84.503906 2.351562 81.992188 1.746094 78.976562 C 1.097656 75.734375 5.734375 52.246094 8.910156 47.808594 C 11.292969 44.472656 14.804688 42.925781 16.347656 42.375 C 16.441406 43.554688 16.75 45.648438 17.738281 47.132812 C 19.1875 49.296875 21.976562 50.015625 22.097656 50.042969 C 22.148438 50.0625 22.203125 50.0625 22.257812 50.0625 C 22.554688 50.0625 22.824219 49.863281 22.898438 49.5625 C 22.988281 49.214844 22.773438 48.855469 22.417969 48.761719 C 22.394531 48.757812 20.007812 48.144531 18.839844 46.402344 C 18.296875 45.589844 18 44.507812 17.835938 43.5625 C 19.3125 45.121094 21.082031 46.539062 21.179688 46.621094 C 21.304688 46.714844 21.449219 46.765625 21.59375 46.765625 C 21.789062 46.765625 21.980469 46.679688 22.109375 46.519531 C 22.339844 46.234375 22.292969 45.820312 22.007812 45.589844 C 21.976562 45.566406 18.765625 42.992188 17.519531 41.121094 C 15.710938 38.417969 12.335938 32.457031 12.335938 30.265625 C 12.335938 25.25 17.464844 17.507812 17.519531 17.433594 C 17.71875 17.128906 17.636719 16.71875 17.335938 16.519531 C 17.03125 16.3125 16.621094 16.394531 16.417969 16.699219 C 16.3125 16.859375 15.066406 18.742188 13.792969 21.253906 C 13.597656 20.183594 13.546875 18.582031 14.28125 16.636719 C 16.277344 11.3125 24.085938 4.527344 28.207031 4.527344 C 32.421875 4.527344 39.539062 12.777344 40.824219 15.988281 C 41.484375 17.648438 41.613281 19.308594 41.589844 20.496094 C 40.132812 18.636719 38.6875 17.339844 38.566406 17.230469 C 38.289062 16.988281 37.875 17.011719 37.628906 17.289062 C 37.386719 17.558594 37.414062 17.972656 37.6875 18.21875 C 37.742188 18.269531 43.417969 23.351562 43.414062 27.625 C 43.414062 31.878906 40.363281 38.289062 38.257812 41.089844 C 36.144531 43.902344 31.664062 48.214844 29.980469 48.777344 C 29.53125 48.925781 29.03125 48.953125 28.539062 48.910156 C 28.621094 48.738281 28.707031 48.558594 28.796875 48.378906 C 29.15625 47.664062 29.527344 46.921875 29.527344 46.105469 C 29.527344 45.09375 29.1875 43.773438 28.980469 43.078125 C 31.140625 41.59375 40.769531 34.695312 40.769531 29.605469 C 40.769531 20.75 32.875 18.386719 28.207031 18.382812 C 28.207031 18.382812 28.207031 18.382812 28.203125 18.382812 C 27.175781 18.382812 23.589844 18.542969 20.414062 20.550781 C 17.289062 22.519531 15.644531 25.652344 15.644531 29.605469 C 15.644531 34.894531 26.039062 42.136719 27.644531 43.222656 C 27.804688 43.75 28.207031 45.144531 28.207031 46.105469 C 28.207031 46.609375 27.921875 47.179688 27.613281 47.789062 C 27.472656 48.074219 27.332031 48.367188 27.214844 48.65625 C 26.4375 48.4375 25.867188 48.160156 25.855469 48.152344 C 25.527344 47.992188 25.132812 48.121094 24.96875 48.449219 C 24.808594 48.773438 24.9375 49.171875 25.261719 49.332031 C 25.320312 49.363281 25.980469 49.6875 26.894531 49.941406 C 26.894531 49.980469 26.882812 50.019531 26.882812 50.0625 C 26.882812 51.085938 27.242188 53.492188 27.457031 54.839844 C 27.515625 55.214844 27.546875 55.601562 27.546875 55.980469 L 27.546875 85.042969 C 27.546875 85.40625 27.839844 85.703125 28.207031 85.703125 C 28.574219 85.703125 28.867188 85.40625 28.867188 85.042969 L 28.867188 78.679688 C 29.597656 79.351562 30.566406 79.765625 31.632812 79.765625 L 36.058594 79.765625 L 36.371094 80.917969 C 36.683594 82.050781 37.703125 82.808594 38.84375 82.808594 C 38.984375 82.808594 39.125 82.796875 39.269531 82.773438 L 41.203125 82.449219 L 41.414062 82.660156 C 41.949219 83.199219 42.683594 83.488281 43.425781 83.488281 C 43.65625 83.488281 43.882812 83.460938 44.113281 83.40625 L 45.292969 83.109375 C 45.324219 83.128906 45.355469 83.140625 45.390625 83.160156 L 45.390625 85.046875 C 45.390625 85.40625 45.683594 85.703125 46.054688 85.703125 C 46.414062 85.703125 46.710938 85.40625 46.710938 85.046875 L 46.710938 83.5 C 46.925781 83.5 47.132812 83.476562 47.34375 83.425781 L 49.167969 82.9375 C 49.4375 82.996094 49.714844 83.035156 49.992188 83.035156 C 50.574219 83.035156 51.167969 82.902344 51.714844 82.628906 L 57.476562 79.753906 C 59.59375 79.601562 61.265625 77.832031 61.265625 75.683594 L 61.265625 59.425781 C 61.269531 57.175781 59.4375 55.34375 57.179688 55.34375 Z M 16.964844 29.605469 C 16.964844 26.078125 18.367188 23.410156 21.125 21.667969 C 24 19.847656 27.269531 19.707031 28.207031 19.707031 C 32.382812 19.707031 39.449219 21.792969 39.449219 29.605469 C 39.449219 33.53125 31.660156 39.660156 28.207031 42.007812 C 24.757812 39.660156 16.964844 33.53125 16.964844 29.605469 Z M 28.949219 50.25 C 29.441406 50.25 29.933594 50.1875 30.398438 50.027344 C 32.160156 49.445312 35.347656 46.4375 37.578125 43.960938 C 37.117188 45.589844 36.324219 47.632812 35.011719 48.933594 C 32.617188 51.328125 30.210938 51.382812 30.191406 51.382812 C 29.828125 51.382812 29.527344 51.679688 29.527344 52.042969 C 29.527344 52.410156 29.828125 52.703125 30.191406 52.703125 C 30.308594 52.703125 33.140625 52.671875 35.949219 49.871094 C 38.09375 47.726562 38.992188 44.070312 39.300781 42.417969 C 41.058594 43.183594 45.386719 45.203125 46.855469 47.15625 C 48.332031 49.132812 49.457031 53.550781 49.867188 55.34375 L 44.996094 55.34375 L 46.027344 52.253906 C 46.140625 51.90625 45.953125 51.535156 45.609375 51.417969 C 45.261719 51.300781 44.886719 51.488281 44.773438 51.835938 L 43.601562 55.339844 L 31.632812 55.339844 C 30.566406 55.339844 29.597656 55.757812 28.867188 56.425781 L 28.867188 55.980469 C 28.867188 55.53125 28.832031 55.078125 28.761719 54.628906 C 28.601562 53.621094 28.242188 51.246094 28.210938 50.203125 C 28.457031 50.230469 28.703125 50.25 28.949219 50.25 Z M 39.054688 81.46875 C 38.421875 81.574219 37.816406 81.1875 37.648438 80.570312 L 36.480469 76.296875 C 36.429688 76.117188 36.457031 75.929688 36.554688 75.769531 C 36.648438 75.609375 36.800781 75.492188 36.976562 75.453125 C 37.347656 75.363281 37.71875 75.585938 37.8125 75.949219 C 37.8125 75.949219 37.8125 75.949219 37.8125 75.953125 L 38.542969 78.863281 C 38.746094 79.675781 39.164062 80.414062 39.757812 81.003906 L 40.058594 81.304688 Z M 42.351562 81.726562 L 40.691406 80.070312 C 40.269531 79.652344 39.96875 79.121094 39.824219 78.542969 L 39.09375 75.632812 C 39 75.261719 39.226562 74.890625 39.621094 74.792969 C 39.992188 74.703125 40.363281 74.921875 40.457031 75.292969 L 41.183594 78.210938 C 41.390625 79.015625 41.808594 79.753906 42.398438 80.339844 L 44.105469 82.046875 L 43.792969 82.128906 C 43.277344 82.253906 42.726562 82.101562 42.351562 81.726562 Z M 47.015625 82.148438 C 46.550781 82.261719 46.054688 82.121094 45.714844 81.789062 L 43.332031 79.410156 C 42.914062 78.988281 42.613281 78.460938 42.472656 77.886719 L 41.742188 74.96875 C 41.648438 74.601562 41.871094 74.230469 42.242188 74.140625 L 42.367188 74.109375 C 42.71875 74.019531 43.070312 74.21875 43.183594 74.558594 L 43.765625 76.292969 L 44.371094 78.105469 C 44.667969 78.992188 45.171875 79.8125 45.832031 80.46875 L 47.273438 81.910156 C 47.324219 81.957031 47.378906 81.992188 47.429688 82.035156 Z M 51.125 81.449219 C 50.152344 81.933594 48.980469 81.746094 48.210938 80.976562 L 46.769531 79.535156 C 46.25 79.023438 45.855469 78.382812 45.625 77.6875 L 45.367188 76.914062 L 45.136719 76.226562 L 44.660156 74.792969 C 44.5625 74.503906 44.59375 74.199219 44.746094 73.933594 C 44.902344 73.667969 45.152344 73.492188 45.453125 73.433594 C 45.519531 73.414062 45.589844 73.410156 45.660156 73.410156 C 46.085938 73.410156 46.476562 73.667969 46.636719 74.074219 L 48.175781 77.902344 C 48.628906 79.035156 49.710938 79.765625 50.929688 79.765625 L 54.503906 79.765625 Z M 59.949219 75.683594 C 59.949219 77.207031 58.707031 78.445312 57.179688 78.445312 L 50.929688 78.445312 C 50.25 78.445312 49.65625 78.039062 49.402344 77.410156 L 47.867188 73.582031 C 47.441406 72.519531 46.320312 71.914062 45.191406 72.136719 C 44.578125 72.261719 44.042969 72.632812 43.695312 73.148438 C 43.230469 72.820312 42.632812 72.679688 42.042969 72.828125 L 41.917969 72.855469 C 41.414062 72.984375 41.007812 73.296875 40.738281 73.703125 C 40.308594 73.46875 39.792969 73.386719 39.273438 73.515625 C 38.769531 73.644531 38.363281 73.953125 38.09375 74.355469 C 37.652344 74.117188 37.148438 74.050781 36.65625 74.167969 C 36.128906 74.304688 35.6875 74.632812 35.410156 75.105469 C 35.136719 75.574219 35.0625 76.121094 35.207031 76.644531 L 35.699219 78.445312 L 31.632812 78.445312 C 30.109375 78.445312 28.867188 77.207031 28.867188 75.683594 L 28.867188 59.425781 C 28.867188 57.902344 30.105469 56.664062 31.632812 56.664062 L 44.074219 56.664062 C 44.078125 56.664062 44.078125 56.664062 44.078125 56.664062 L 57.179688 56.664062 C 58.703125 56.664062 59.945312 57.902344 59.945312 59.425781 L 59.945312 75.683594 Z M 59.949219 75.683594 "/></g><path style=" stroke:none;fill-rule:nonzero;fill:#3a322b;fill-opacity:1;" d="M 28.800781 28.316406 C 28.800781 28.015625 28.597656 27.753906 28.304688 27.679688 L 26.554688 27.238281 C 25.609375 26.996094 24.871094 26.261719 24.628906 25.316406 L 24.1875 23.566406 C 24.113281 23.273438 23.847656 23.070312 23.546875 23.070312 C 23.242188 23.070312 22.980469 23.277344 22.90625 23.566406 L 22.460938 25.316406 C 22.222656 26.261719 21.484375 26.996094 20.539062 27.234375 L 18.789062 27.679688 C 18.496094 27.75 18.289062 28.015625 18.289062 28.316406 C 18.289062 28.621094 18.496094 28.882812 18.789062 28.957031 L 20.539062 29.398438 C 21.484375 29.640625 22.222656 30.375 22.460938 31.320312 L 22.90625 33.066406 C 22.980469 33.359375 23.242188 33.5625 23.542969 33.5625 C 23.847656 33.5625 24.113281 33.359375 24.1875 33.066406 L 24.628906 31.320312 C 24.871094 30.375 25.605469 29.640625 26.554688 29.398438 L 28.304688 28.957031 C 28.597656 28.882812 28.800781 28.621094 28.800781 28.316406 Z M 23.542969 30.410156 C 23.144531 29.46875 22.390625 28.71875 21.449219 28.316406 C 22.390625 27.917969 23.144531 27.167969 23.542969 26.226562 C 23.949219 27.167969 24.703125 27.917969 25.644531 28.316406 C 24.703125 28.71875 23.949219 29.46875 23.542969 30.410156 Z M 23.542969 30.410156 "/></g></svg>