<svg xmlns="http://www.w3.org/2000/svg" xmlns:xlink="http://www.w3.org/1999/xlink" width="375" zoomAndPan="magnify" viewBox="0 0 281.25 281.249989" height="375" preserveAspectRatio="xMidYMid meet" version="1.2"><defs><clipPath id="8d0bba970e"><path d="M 50 267.125 L 73.304688 267.125 L 73.304688 275.625 L 50 275.625 Z M 50 267.125 "/></clipPath><clipPath id="6fa51b972e"><path d="M 12 163.421875 L 71 163.421875 L 71 275.625 L 12 275.625 Z M 12 163.421875 "/></clipPath><clipPath id="13b952ead7"><path d="M 50 236.453125 L 93.601562 236.453125 L 93.601562 267.125 L 50 267.125 Z M 50 236.453125 "/></clipPath></defs><g id="53440ac21f"><path style=" stroke:none;fill-rule:nonzero;fill:#39ff14;fill-opacity:1;" d="M 50.0625 236.214844 C 51.085938 235.273438 52.441406 234.695312 53.9375 234.695312 L 70.6875 234.695312 L 72.324219 229.777344 C 72.488281 229.289062 73.007812 229.023438 73.496094 229.191406 C 73.980469 229.351562 74.246094 229.875 74.082031 230.359375 L 72.636719 234.695312 L 79.460938 234.695312 C 78.882812 232.175781 77.3125 225.980469 75.242188 223.21875 C 73.1875 220.476562 67.132812 217.644531 64.671875 216.570312 C 64.238281 218.886719 62.980469 224.011719 59.976562 227.019531 C 56.046875 230.945312 52.082031 230.992188 51.917969 230.992188 C 51.40625 230.992188 50.992188 230.578125 50.992188 230.066406 C 50.992188 229.554688 51.40625 229.140625 51.917969 229.140625 C 51.945312 229.140625 55.3125 229.066406 58.667969 225.710938 C 60.5 223.878906 61.609375 221.015625 62.257812 218.726562 C 59.136719 222.203125 54.671875 226.421875 52.210938 227.242188 C 51.554688 227.460938 50.863281 227.550781 50.179688 227.550781 C 49.832031 227.550781 49.488281 227.527344 49.148438 227.484375 C 49.191406 228.949219 49.691406 232.28125 49.917969 233.695312 C 50.015625 234.320312 50.066406 234.960938 50.066406 235.59375 L 50.066406 236.214844 Z M 50.0625 236.214844 "/><g clip-rule="nonzero" clip-path="url(#8d0bba970e)"><path style=" stroke:none;fill-rule:nonzero;fill:#39ff14;fill-opacity:1;" d="M 71.40625 274.050781 C 71.089844 274.128906 70.769531 274.167969 70.449219 274.167969 C 69.402344 274.167969 68.382812 273.757812 67.628906 273.003906 L 67.335938 272.710938 L 64.628906 273.164062 C 64.429688 273.195312 64.230469 273.210938 64.03125 273.210938 C 62.433594 273.210938 61.003906 272.152344 60.570312 270.5625 L 60.128906 268.945312 L 53.9375 268.945312 C 52.445312 268.945312 51.085938 268.363281 50.066406 267.421875 L 50.066406 275.421875 L 73.195312 275.421875 L 73.195312 273.707031 C 73.148438 273.683594 73.101562 273.664062 73.058594 273.636719 Z M 71.40625 274.050781 "/></g><path style=" stroke:none;fill-rule:nonzero;fill:#39ff14;fill-opacity:1;" d="M 62.585938 263.59375 C 62.457031 263.078125 61.933594 262.765625 61.414062 262.894531 C 61.164062 262.957031 60.949219 263.117188 60.820312 263.34375 C 60.6875 263.566406 60.652344 263.832031 60.722656 264.082031 L 62.355469 270.074219 C 62.59375 270.941406 63.4375 271.484375 64.324219 271.335938 L 65.726562 271.101562 L 65.304688 270.683594 C 64.472656 269.855469 63.886719 268.816406 63.605469 267.679688 Z M 62.585938 263.59375 "/><g clip-rule="nonzero" clip-path="url(#6fa51b972e)"><path style=" stroke:none;fill-rule:nonzero;fill:#39ff14;fill-opacity:1;" d="M 31.554688 198.597656 C 31.554688 193.054688 33.863281 188.664062 38.234375 185.898438 C 42.675781 183.082031 47.695312 182.863281 49.136719 182.863281 C 49.136719 182.863281 49.136719 182.863281 49.140625 182.863281 C 55.671875 182.863281 66.726562 186.179688 66.726562 198.597656 C 66.726562 205.738281 53.25 215.410156 50.222656 217.492188 C 50.511719 218.472656 50.988281 220.316406 50.988281 221.738281 C 50.988281 222.878906 50.46875 223.921875 49.96875 224.929688 C 49.839844 225.183594 49.71875 225.429688 49.609375 225.675781 C 50.292969 225.730469 50.992188 225.695312 51.625 225.484375 C 53.980469 224.699219 60.25 218.644531 63.210938 214.703125 C 66.15625 210.773438 70.421875 201.785156 70.429688 195.820312 C 70.433594 189.835938 62.492188 182.699219 62.410156 182.628906 C 62.027344 182.289062 61.992188 181.703125 62.332031 181.320312 C 62.671875 180.9375 63.257812 180.902344 63.640625 181.246094 C 63.808594 181.398438 65.832031 183.21875 67.875 185.820312 C 67.90625 184.160156 67.722656 181.828125 66.796875 179.5 C 65 175 55.035156 163.425781 49.140625 163.421875 C 49.140625 163.421875 49.136719 163.421875 49.136719 163.421875 C 43.371094 163.421875 32.441406 172.949219 29.644531 180.410156 C 28.621094 183.136719 28.6875 185.386719 28.964844 186.882812 C 30.742188 183.359375 32.484375 180.71875 32.632812 180.496094 C 32.917969 180.070312 33.492188 179.953125 33.917969 180.242188 C 34.34375 180.523438 34.457031 181.097656 34.175781 181.523438 C 34.105469 181.632812 26.925781 192.488281 26.925781 199.523438 C 26.925781 202.59375 31.648438 210.953125 34.175781 214.746094 C 35.925781 217.371094 40.417969 220.976562 40.460938 221.011719 C 40.863281 221.335938 40.925781 221.914062 40.605469 222.316406 C 40.425781 222.542969 40.15625 222.660156 39.882812 222.660156 C 39.679688 222.660156 39.476562 222.597656 39.304688 222.460938 C 39.164062 222.34375 36.6875 220.355469 34.617188 218.171875 C 34.847656 219.492188 35.265625 221.011719 36.023438 222.148438 C 37.660156 224.597656 41 225.457031 41.035156 225.464844 C 41.527344 225.589844 41.828125 226.089844 41.707031 226.585938 C 41.601562 227.007812 41.226562 227.289062 40.808594 227.289062 C 40.738281 227.289062 40.660156 227.28125 40.585938 227.261719 C 40.417969 227.21875 36.511719 226.214844 34.488281 223.175781 C 33.097656 221.09375 32.671875 218.15625 32.539062 216.503906 C 30.378906 217.277344 25.464844 219.445312 22.125 224.125 C 17.679688 230.347656 11.191406 263.292969 12.097656 267.832031 C 12.828125 271.488281 16.15625 274.609375 17.085938 275.417969 L 35.417969 275.417969 C 35.644531 274.214844 36.0625 271.835938 36.160156 270.394531 C 34.625 269.53125 29.792969 266.855469 27.558594 266.113281 C 26.113281 265.632812 24.429688 266.117188 24.414062 266.125 C 23.925781 266.269531 23.40625 265.988281 23.265625 265.5 C 23.117188 265.011719 23.394531 264.5 23.882812 264.351562 C 23.957031 264.328125 25.410156 263.914062 27.03125 264.121094 C 27.269531 261.671875 27.851562 255.554688 27.851562 254.128906 C 27.851562 253.421875 27.449219 252.617188 27.023438 251.765625 C 26.519531 250.761719 26 249.71875 26 248.574219 C 26 247.890625 26.195312 246.800781 26.441406 245.417969 C 26.898438 242.882812 27.519531 239.410156 26.972656 237.761719 C 26.128906 235.238281 24.4375 233.507812 24.417969 233.492188 C 24.054688 233.128906 24.058594 232.546875 24.421875 232.183594 C 24.785156 231.824219 25.363281 231.824219 25.726562 232.1875 C 25.808594 232.269531 27.742188 234.226562 28.726562 237.171875 C 29.425781 239.273438 28.785156 242.859375 28.261719 245.746094 C 28.050781 246.933594 27.847656 248.054688 27.847656 248.574219 C 27.847656 249.28125 28.25 250.085938 28.679688 250.9375 C 29.179688 251.945312 29.699219 252.984375 29.699219 254.128906 C 29.699219 255.722656 29.058594 262.414062 28.84375 264.617188 C 30.898438 265.429688 34.023438 267.09375 35.925781 268.144531 C 35.683594 267.25 35.355469 266.585938 35.351562 266.574219 C 35.125 266.117188 35.3125 265.5625 35.765625 265.335938 C 36.222656 265.105469 36.78125 265.292969 37.007812 265.746094 C 37.050781 265.832031 38.03125 267.820312 38.03125 269.863281 C 38.03125 271.226562 37.574219 273.902344 37.296875 275.417969 L 39.609375 275.417969 L 39.800781 273.816406 C 39.957031 272.496094 39.886719 271.101562 39.597656 269.890625 L 38.980469 267.300781 C 38.863281 266.804688 39.171875 266.304688 39.667969 266.1875 C 40.160156 266.070312 40.664062 266.375 40.78125 266.871094 L 41.398438 269.464844 C 41.738281 270.878906 41.820312 272.503906 41.640625 274.035156 L 41.472656 275.417969 L 48.210938 275.417969 L 48.210938 235.59375 C 48.210938 235.054688 48.171875 234.519531 48.085938 233.984375 C 47.789062 232.101562 47.285156 228.722656 47.285156 227.292969 C 47.285156 227.234375 47.300781 227.179688 47.304688 227.121094 C 46.027344 226.761719 45.097656 226.308594 45.019531 226.269531 C 44.566406 226.039062 44.378906 225.484375 44.609375 225.027344 C 44.835938 224.570312 45.390625 224.382812 45.847656 224.613281 C 45.863281 224.621094 46.664062 225.011719 47.746094 225.320312 C 47.917969 224.90625 48.109375 224.5 48.3125 224.101562 C 48.738281 223.25 49.136719 222.445312 49.136719 221.738281 C 49.136719 220.394531 48.578125 218.433594 48.355469 217.695312 C 46.105469 216.171875 31.554688 206.015625 31.554688 198.597656 Z M 31.554688 198.597656 "/></g><path style=" stroke:none;fill-rule:nonzero;fill:#39ff14;fill-opacity:1;" d="M 64.875 198.597656 C 64.875 187.640625 54.984375 184.714844 49.140625 184.714844 C 49.136719 184.714844 49.136719 184.714844 49.132812 184.714844 C 47.824219 184.714844 43.246094 184.914062 39.222656 187.460938 C 35.359375 189.90625 33.402344 193.652344 33.402344 198.597656 C 33.402344 204.105469 44.308594 212.695312 49.140625 215.992188 C 53.96875 212.695312 64.875 204.105469 64.875 198.597656 Z M 46.597656 197.414062 C 44.945312 197.832031 43.652344 199.121094 43.234375 200.777344 L 42.613281 203.222656 L 41.992188 200.777344 C 41.574219 199.121094 40.285156 197.832031 38.628906 197.414062 L 36.183594 196.792969 L 38.628906 196.171875 C 40.285156 195.753906 41.574219 194.460938 41.992188 192.808594 L 42.613281 190.359375 L 43.234375 192.808594 C 43.652344 194.460938 44.945312 195.753906 46.597656 196.171875 L 49.046875 196.792969 Z M 46.597656 197.414062 "/><path style=" stroke:none;fill-rule:nonzero;fill:#39ff14;fill-opacity:1;" d="M 77.089844 266.332031 L 74.9375 260.960938 C 74.710938 260.390625 74.164062 260.03125 73.566406 260.03125 C 73.472656 260.03125 73.375 260.039062 73.277344 260.0625 C 72.859375 260.144531 72.507812 260.398438 72.289062 260.769531 C 72.078125 261.140625 72.03125 261.570312 72.167969 261.976562 L 72.835938 263.980469 L 73.160156 264.949219 L 73.519531 266.035156 C 73.84375 267.003906 74.398438 267.902344 75.121094 268.625 L 77.136719 270.644531 C 78.214844 271.722656 79.859375 271.984375 81.21875 271.304688 L 85.945312 268.945312 L 80.945312 268.945312 C 79.234375 268.945312 77.722656 267.917969 77.089844 266.332031 Z M 77.089844 266.332031 "/><path style=" stroke:none;fill-rule:nonzero;fill:#39ff14;fill-opacity:1;" d="M 66.613281 269.375 L 68.9375 271.695312 C 69.460938 272.21875 70.234375 272.433594 70.957031 272.253906 L 71.394531 272.144531 L 69.003906 269.753906 C 68.175781 268.925781 67.59375 267.890625 67.308594 266.761719 L 66.285156 262.671875 C 66.285156 262.671875 66.285156 262.671875 66.285156 262.667969 C 66.15625 262.152344 65.632812 261.839844 65.117188 261.96875 C 64.566406 262.105469 64.25 262.628906 64.378906 263.144531 L 65.402344 267.226562 C 65.601562 268.039062 66.023438 268.78125 66.613281 269.375 Z M 66.613281 269.375 "/><g clip-rule="nonzero" clip-path="url(#13b952ead7)"><path style=" stroke:none;fill-rule:nonzero;fill:#39ff14;fill-opacity:1;" d="M 89.695312 236.546875 L 71.355469 236.546875 C 71.355469 236.546875 71.355469 236.546875 71.351562 236.546875 L 53.9375 236.546875 C 51.800781 236.546875 50.0625 238.285156 50.0625 240.417969 L 50.0625 263.21875 C 50.0625 265.355469 51.800781 267.09375 53.9375 267.09375 L 59.625 267.09375 L 58.933594 264.570312 C 58.734375 263.832031 58.839844 263.066406 59.222656 262.40625 C 59.605469 261.746094 60.230469 261.28125 60.96875 261.097656 C 61.65625 260.925781 62.363281 261.023438 62.980469 261.359375 C 63.355469 260.792969 63.925781 260.359375 64.632812 260.183594 C 65.355469 260.003906 66.074219 260.117188 66.679688 260.4375 C 67.054688 259.875 67.625 259.433594 68.335938 259.257812 L 68.507812 259.214844 C 69.332031 259.007812 70.167969 259.203125 70.816406 259.667969 C 71.304688 258.9375 72.050781 258.417969 72.914062 258.246094 C 74.492188 257.933594 76.0625 258.785156 76.660156 260.273438 L 78.804688 265.644531 C 79.160156 266.523438 80 267.09375 80.945312 267.09375 L 89.699219 267.09375 C 91.832031 267.09375 93.570312 265.355469 93.570312 263.21875 L 93.570312 240.417969 C 93.566406 238.285156 91.832031 236.546875 89.695312 236.546875 Z M 89.695312 236.546875 "/></g><path style=" stroke:none;fill-rule:nonzero;fill:#39ff14;fill-opacity:1;" d="M 73.8125 269.933594 C 72.886719 269.007812 72.175781 267.859375 71.761719 266.617188 L 70.917969 264.074219 L 70.101562 261.640625 C 69.945312 261.164062 69.449219 260.886719 68.957031 261.007812 L 68.78125 261.050781 C 68.265625 261.179688 67.953125 261.703125 68.082031 262.21875 L 69.105469 266.3125 C 69.308594 267.117188 69.722656 267.855469 70.308594 268.441406 L 73.648438 271.78125 C 74.121094 272.25 74.816406 272.445312 75.464844 272.285156 L 76.046875 272.128906 C 75.976562 272.0625 75.894531 272.015625 75.828125 271.949219 Z M 73.8125 269.933594 "/></g></svg>